<?xml version="1.0" ?><!-- Generator: Adobe Illustrator 16.0.0, SVG Export Plug-In . SVG Version: 6.00 Build 0)  --><!DOCTYPE svg  PUBLIC '-//W3C//DTD SVG 1.1//EN'  'http://www.w3.org/Graphics/SVG/1.1/DTD/svg11.dtd' [
	<!ENTITY stroke_color "#666666">
	<!ENTITY fill_color "#ffffff">
]><svg enable-background="new 0.499 48.118 511.002 415.763" height="415.763px" id="Layer_1" inkscape:version="0.91 r13725" sodipodi:docname="blender-1.svg" version="1.1" viewBox="0.499 48.118 511.002 415.763" width="511.002px" x="0px" xml:space="preserve" xmlns="http://www.w3.org/2000/svg" xmlns:cc="http://creativecommons.org/ns#" xmlns:dc="http://purl.org/dc/elements/1.1/" xmlns:inkscape="http://www.inkscape.org/namespaces/inkscape" xmlns:rdf="http://www.w3.org/1999/02/22-rdf-syntax-ns#" xmlns:sodipodi="http://sodipodi.sourceforge.net/DTD/sodipodi-0.dtd" xmlns:svg="http://www.w3.org/2000/svg" y="0px"><metadata id="metadata10"><rdf:RDF><cc:Work rdf:about=""><dc:format>image/svg+xml</dc:format><dc:type rdf:resource="http://purl.org/dc/dcmitype/StillImage"/></cc:Work></rdf:RDF></metadata><defs id="defs8"/><sodipodi:namedview bordercolor="#666666" borderopacity="1" gridtolerance="10" guidetolerance="10" id="namedview6" inkscape:current-layer="Layer_1" inkscape:cx="-29.014775" inkscape:cy="207.8815" inkscape:pageopacity="0" inkscape:pageshadow="2" inkscape:window-height="707" inkscape:window-maximized="1" inkscape:window-width="1366" inkscape:window-x="0" inkscape:window-y="24" inkscape:zoom="0.56763108" objecttolerance="10" pagecolor="#ffffff" showgrid="false"/><path d="m 501.6528,278.48642 c -2.89944,-20.06579 -9.96622,-39.09486 -21.01078,-56.55268 -9.6316,-15.23601 -21.99048,-28.78662 -36.74203,-40.30374 l 0.0396,-0.0361 L 289.01112,64.568919 c -0.12863,-0.11033 -0.26113,-0.213051 -0.34914,-0.272971 -5.1509,-3.880573 -12.12484,-6.015839 -19.62972,-6.015839 -7.51456,0 -14.76123,2.140022 -20.39473,6.028203 -6.0571,4.161153 -9.5194,9.682408 -9.76118,15.559383 -0.22148,5.483211 2.43812,10.759077 7.50875,14.871723 9.97106,7.737362 19.91987,15.643082 29.88222,23.558312 9.66834,7.68505 19.63069,15.59933 29.54469,23.30435 l -189.76242,-0.12649 c -21.701309,0 -36.478005,10.02195 -39.517678,26.80067 -1.335599,7.34931 1.021284,15.43003 6.290178,21.61898 5.58998,6.56083 13.70609,10.17984 22.85219,10.17984 l 14.46625,0.01 c 19.98466,0 40.05733,-0.0485 60.10292,-0.0961 l 19.11619,-0.0437 -172.22555,125.30824 -0.683757,0.49173 c -9.619989,7.25135 -15.917904,17.41787 -17.2767139,27.89066 -1.0299877,7.93425 0.8520369,15.18465 5.4449109,20.97507 5.473926,6.90323 14.020406,10.70011 24.066896,10.70011 9.869506,0 19.940174,-3.67799 28.369632,-10.37483 l 93.004502,-74.85319 c -0.39749,3.65515 -0.88008,9.01757 -0.82496,12.90956 0.10445,6.16231 2.11607,18.52688 5.30081,28.565 6.58032,20.62981 17.66453,39.5048 32.94317,56.08093 15.89759,17.24572 35.25943,30.91998 57.54391,40.63378 23.55916,10.24737 48.88525,15.44905 75.27711,15.44905 l 0.24468,0 c 26.476,-0.0628 51.88237,-5.3472 75.51793,-15.71156 22.32123,-9.82888 41.67436,-23.55831 57.51199,-40.80118 15.25929,-16.66078 26.32804,-35.56715 32.89578,-56.17984 3.2447,-10.19696 5.33756,-20.75345 6.20507,-31.38984 0.81142,-10.30063 0.46228,-20.78198 -1.02225,-31.15205 z m -169.42379,98.87755 c -58.16384,0 -105.3305,-41.49454 -105.3305,-92.68385 0,-51.18361 47.16763,-92.67815 105.3305,-92.67815 58.16481,0 105.32664,41.49454 105.32664,92.67815 0.002,51.18931 -47.16183,92.68385 -105.32664,92.68385 z m 60.7422,-100.8283 c 0.85784,15.27785 -5.34724,29.46382 -16.24383,39.96514 -11.08421,10.69821 -26.90057,17.41787 -44.58734,17.41787 -17.67904,0 -33.4983,-6.71966 -44.58638,-17.41787 -10.89176,-10.50132 -17.08426,-24.68539 -16.23125,-39.95277 0.83559,-14.84034 8.19638,-27.94013 19.2835,-37.21545 10.90239,-9.1203 25.54176,-14.68436 41.53316,-14.68436 15.99334,0 30.62884,5.56596 41.5322,14.68436 11.09292,9.27532 18.45564,22.3656 19.29994,37.20308 z" id="path4" inkscape:connector-curvature="0" style="fill:&fill_color;;fill-opacity:1;stroke:&stroke_color;;stroke-width:19.18178558;stroke-miterlimit:4;stroke-dasharray:none;stroke-opacity:1"/></svg>